<?xml version="1.0" encoding="utf-8"?>
<!-- Generator: Adobe Illustrator 25.2.0, SVG Export Plug-In . SVG Version: 6.00 Build 0)  -->
<svg version="1.1" id="Capa_1" xmlns="http://www.w3.org/2000/svg" xmlns:xlink="http://www.w3.org/1999/xlink" x="0px" y="0px"
	 viewBox="0 0 566.93 302.64" style="enable-background:new 0 0 566.93 302.64;" xml:space="preserve">
<g>
	<path d="M128.48,0.4c0.03,2.54,0.02,5.08,0.12,7.62c0.06,1.48-0.56,2.06-2,2.03c-2.41-0.04-4.82-0.03-7.23,0.01
		c-6.29,0.1-8.55,2.4-8.55,8.71c-0.01,29.44,0.02,58.88-0.01,88.32c-0.01,9.74-2.19,18.82-8.37,26.65
		c-4.79,6.07-10.79,10.51-17.9,13.52c-0.41,0.17-0.94,0.18-1.24,0.79c0.9,0.65,2.02,0.5,3.01,0.7
		c18.89,3.83,34.01,13.51,45.22,29.18c7.93,11.08,12.26,23.51,13.56,37.04c1.33,13.83,0.44,27.49-4.84,40.42
		c-10.02,24.57-27.53,40.67-54.03,46.06c-1.83,0.37-3.69,0.59-5.53,0.88c-5.49,0-10.97,0-16.46,0c-0.39-0.09-0.77-0.23-1.16-0.28
		c-12.8-1.49-24.29-6.22-34.34-14.23C15.45,277.23,6.7,263.65,2.68,247.08c-1.07-4.42-1.66-8.91-2.28-13.4c0-6.02,0-12.05,0-18.07
		c0.66-4.42,1.17-8.87,2.32-13.21c5.6-21.11,18-36.88,37.13-47.38c2.96-1.62,6.13-2.8,9.77-4.16c-1.28-0.28-1.99-0.44-2.71-0.58
		c-7.32-1.5-14.05-4.31-19.92-9.01c-11.48-9.21-17.31-20.71-14.25-35.71C15.02,94.43,24.38,86.4,35.41,86.4
		c14.17,0.01,23.79,13.1,18.65,27.09c-2.26,6.14-8.54,10.54-15.37,9.17c-1.95-0.39-3.9-0.94-5.94-0.89
		c-2.97,0.08-4.14,1.24-4.18,4.16c-0.06,4.08,2.04,6.97,5.13,9.27c6.11,4.56,13.15,6.23,20.61,5.93
		c8.78-0.35,15.92-3.87,20.36-11.81c2.66-4.77,3.91-9.99,3.93-15.4c0.08-31.91,0.09-63.83,0.08-95.74c0-5.74-2.47-8.08-8.28-8.12
		c-4.28-0.03-8.56-0.05-12.85,0.01c-1.63,0.02-2.29-0.58-2.22-2.24c0.11-2.47,0.07-4.95,0.09-7.42C79.77,0.4,104.12,0.4,128.48,0.4z
		 M110.38,223.94c0.16-8.51-0.22-17.19-1.29-25.83c-1.01-8.08-2.89-15.88-6.79-23.14c-9.18-17.07-29.68-21.45-44.64-13.75
		c-7.85,4.04-12.45,10.93-15.82,18.79c-5.06,11.84-6.37,24.38-6.76,37.05c-0.3,9.76-0.2,19.53,0.8,29.25
		c0.76,7.39,1.88,14.72,4.61,21.7c5.43,13.91,14.75,22.88,30.33,23.93c9.63,0.65,17.89-2.37,24.7-9.24
		c6.65-6.71,10-15.08,11.97-24.1C109.96,247.25,110.58,235.72,110.38,223.94z"/>
	<path d="M567.33,126.88c-3.38,5.07-6.92,10-11.52,14.09c-7.1,6.32-15.53,9.58-24.82,10.76c-9.74,1.23-19.44,0.81-28.67-2.71
		c-17.85-6.8-28.31-19.78-31.06-38.73c-1.59-10.95-0.57-21.72,4.48-31.67c8.07-15.91,20.76-25.7,38.84-27.76
		c8.64-0.98,17.11-0.13,25.23,3.04c12.05,4.71,19.75,13.59,24.03,25.62c1.8,5.07,2.72,10.33,3.22,15.67
		c0.05,0.53,0.18,1.05,0.27,1.57c0,2.28,0,4.55,0,6.83c-0.87,0.02-1.74,0.06-2.61,0.06c-20,0-40.01,0-60.01,0.01
		c-2.75,0-2.82,0.01-2.7,2.8c0.24,5.56,0.98,11.06,2.74,16.36c2.16,6.5,5.9,11.83,11.87,15.39c8.9,5.3,21.86,4.06,30.73-2.89
		c5.02-3.93,8.99-8.78,12.39-14.1c1.13-1.77,2.05-1.87,3.62-0.7c1.22,0.91,2.63,1.57,3.96,2.34
		C567.33,124.2,567.33,125.54,567.33,126.88z M518.98,93.94c0-0.01,0-0.03,0-0.04c5.01,0,10.02,0.09,15.03-0.03
		c3.8-0.09,5.7-1.71,6.32-5.42c0.97-5.77,0.49-11.48-1.75-16.91c-2.95-7.12-8.26-11.36-16.09-11.5c-7.82-0.14-13,4.08-16.12,11.06
		c-3,6.7-3.85,13.84-4.38,21.06c-0.11,1.48,0.68,1.8,1.96,1.79C508.96,93.92,513.97,93.94,518.98,93.94z"/>
	<path d="M268.03,72.54c4.38-5.27,8.58-9.94,13.69-13.69c9.44-6.92,20.04-9.05,31.4-6.94c10.59,1.97,17.02,8.95,20.8,18.68
		c1.11,2.85,1.08,2.87,3.02,0.51c4.88-5.93,10.19-11.37,17.01-15.09c8.72-4.76,18.01-6.41,27.74-4.19
		c12.1,2.76,18.74,10.93,21.48,22.65c0.9,3.85,1.15,7.8,1.16,11.75c0.02,14.25,0.1,28.51-0.05,42.76c-0.04,4.1,1.68,6.72,5.3,8.04
		c6.37,2.31,12.71,2.39,18.74-1.16c2.26-1.33,3.27-3.34,3.26-6.02c-0.04-18.27-0.02-36.54-0.02-54.8c0-7.1-3.44-10.68-10.61-11.05
		c-4.64-0.24-4.64-0.24-4.64-4.97c0-4.71,0-4.66,4.82-4.87c11.35-0.49,22.7-1.02,34.05-1.56c3.35-0.16,3.42-0.14,3.42,3.13
		c0,25.09,0.1,50.19-0.07,75.28c-0.04,6.05,3.07,7.53,7.63,7.78c1.67,0.09,3.35,0.07,5.02,0.01c1.35-0.05,1.97,0.44,1.93,1.85
		c-0.06,2.07-0.05,4.15-0.01,6.22c0.03,1.31-0.6,1.82-1.83,1.77c-0.47-0.02-0.94,0-1.41,0c-34.86,0-69.73,0-104.59,0
		c-3.51,0-3.51,0-3.51-3.57c0-1.47,0.03-2.94,0-4.42c-0.03-1.37,0.59-1.87,1.95-1.87c2.27,0,4.54,0.19,6.81-0.22
		c4.58-0.82,6.7-2.9,6.73-7.53c0.1-14.32,0.07-28.64,0-42.96c-0.01-2.19-0.36-4.41-0.82-6.55c-2.18-10.25-9.76-14.49-19.6-13.38
		c-9.3,1.05-14.26,7.12-17.68,15.03c-1.83,4.22-2.77,8.58-2.71,13.25c0.14,11.17,0.16,22.35,0,33.52c-0.09,6.27,2.69,8.58,8.77,8.85
		c1.6,0.07,3.21,0.05,4.82,0.01c1.16-0.03,1.76,0.42,1.76,1.62c-0.01,2.21-0.01,4.42-0.01,6.62c0,1.08-0.54,1.6-1.61,1.59
		c-0.4,0-0.8,0.01-1.2,0.01c-17.4,0-34.8,0-52.19,0c-2.99,0-2.99-0.01-3-2.99c0-1.61,0.08-3.22-0.02-4.82
		c-0.11-1.62,0.6-2.07,2.12-2.06c2.4,0.01,4.81,0.2,7.21-0.21c4.36-0.75,6.28-2.84,6.35-7.31c0.07-4.48,0.03-8.97,0.03-13.45
		c0-9.57-0.01-19.14,0-28.71c0-2.42-0.25-4.81-0.77-7.16c-2.9-13.1-14.95-17.09-25.31-12.22c-9.31,4.38-14.19,12.45-14.58,22.58
		c-0.48,12.23-0.11,24.49-0.11,36.73c0,0.27,0.01,0.54,0.01,0.8c0.14,6.03,2.86,8.78,8.93,8.96c1.54,0.05,3.08,0.04,4.62,0.01
		c1.1-0.02,1.61,0.5,1.62,1.56c0.01,2.27,0,4.55-0.01,6.82c-0.01,0.99-0.56,1.45-1.53,1.45c-0.6,0-1.2,0.01-1.81,0.01
		c-17.46,0-34.93,0.01-52.39-0.01c-1.5,0-2.87,0.27-4.27,0.84c-6.1,2.5-12.44,3.7-19.02,2.76c-8.26-1.17-13.69-6.15-17.46-13.31
		c-0.71-1.34-0.79-3.7-2.35-3.75c-1.12-0.04-2.32,1.8-3.46,2.82c-5.64,5.01-11.57,9.59-18.98,11.66c-9.64,2.7-19.34,2.96-28.79-0.61
		c-8.35-3.15-13.98-9.02-14.92-18.23c-0.96-9.44,2.48-17.28,9.73-23.46c5-4.27,10.9-6.71,17.04-8.71
		c12.04-3.93,24.43-6.43,36.86-8.74c1.54-0.29,2.18-0.85,2.14-2.46c-0.09-4.01,0.02-8.03-0.05-12.04
		c-0.11-7.07-4.16-13.04-10.77-15.49c-7.09-2.63-14.07-2.07-20.71,1.62c-3.31,1.84-3.58,3.06-1.64,6.28
		c1.99,3.3,3.22,6.8,2.67,10.68c-0.92,6.57-5.01,10.33-12.57,10.94c-8.45,0.68-14.71-3.79-15.87-11.16
		c-0.82-5.23,0.65-9.98,4.09-14.01c6.21-7.28,14.39-11.26,23.52-13.28c13.69-3.03,27.26-2.33,40.51,2.41
		c9.73,3.48,14.93,10.86,17.07,20.65c0.54,2.48,0.79,5.01,0.79,7.57c-0.01,14.79,0.22,29.58-0.09,44.36
		c-0.17,8.41,4.86,11.37,10.28,12.27c4.9,0.82,9.76,0.35,14.21-2.18c3.38-1.92,5.29-4.62,5.27-8.75c-0.09-17.67-0.03-35.33-0.04-53
		c0-6.48-3.13-9.58-9.63-10.03c-7.02-0.49-5.51,0.48-5.65-5.81c-0.09-4.16-0.02-4.12,4.12-4.33c10.68-0.53,21.36-1.12,32.04-1.64
		c2.97-0.14,3-0.06,3.59,2.91C266.85,60.91,267.55,66.46,268.03,72.54z M184.59,108.03c0-3-0.04-5.21,0.01-7.41
		c0.03-1.27-0.4-1.91-1.75-1.69c-7.39,1.22-14.75,2.52-21.65,5.61c-8.75,3.92-13.15,11.24-12.51,20.8
		c0.5,7.47,5.48,12.17,12.95,12.24c10.87,0.1,19.93-7.44,22.15-18.38C184.6,115.24,184.68,111.25,184.59,108.03z"/>
	<path d="M185.16,217.72c0,20.81,0.07,41.62-0.06,62.43c-0.02,3.94,1.61,6.5,5.03,7.81c7.08,2.7,14.26,2.74,21.3-0.23
		c3.34-1.41,4.9-3.98,4.89-7.75c-0.09-17.93-0.03-35.86-0.04-53.8c-0.01-7.28-3.72-10.94-11.05-10.96
		c-4.96-0.01-4.16,0.14-4.19-4.21c-0.04-5.59-0.01-5.62,5.6-5.86c10.69-0.46,21.37-0.89,32.06-1.32c4.32-0.17,4.32-0.16,4.32,4.16
		c0,24.56,0,49.11,0,73.67c0,5.85,2.24,8.08,8.15,8.11c1.61,0.01,3.21,0.04,4.82,0c1.15-0.03,1.77,0.42,1.77,1.62
		c-0.01,2.21,0,4.42,0,6.62c0,1.04-0.45,1.64-1.57,1.6c-0.53-0.02-1.07,0.01-1.61,0.01c-36,0-72,0-107.99,0
		c-3.35,0-3.35,0-3.35-3.44c0-1.61,0.02-3.21,0.01-4.82c-0.01-1.09,0.5-1.59,1.58-1.58c1.87,0.01,3.75,0.03,5.62-0.03
		c4.72-0.16,7.4-2.8,7.69-7.51c0.04-0.73,0.05-1.47,0.05-2.21c0-32.45-0.12-64.9,0.09-97.35c0.05-7.18-5.5-11.43-11.31-11.19
		c-5.36,0.22-5.38,0.03-5.37-5.36c0.01-4.18-0.46-3.93,3.86-3.95c6.7-0.02,13.38-0.26,19.93-1.76c5.83-1.33,11.21-3.57,15.41-8.05
		c0.86-0.92,2.04-0.91,3.16-1c0.74-0.06,1.1,0.42,1.14,1.11c0.04,0.67,0.05,1.34,0.05,2.01
		C185.16,175.57,185.16,196.64,185.16,217.72z"/>
	<path d="M421.18,253.42c-10.17,0-20.34,0-30.51,0c-1.13,0-2.39-0.2-2.28,1.62c0.46,7.78,1.34,15.46,5.01,22.53
		c6.61,12.76,21.48,17.3,35,10.78c7.06-3.41,12-9.03,16.44-15.24c2.9-4.07,2.92-4.1,7.25-1.39c3.67,2.29,3.8,1.41,1.28,5.44
		c-4.65,7.45-10.2,14.07-17.96,18.55c-5.66,3.26-11.78,5.07-18.22,5.82c-10.03,1.16-19.97,0.64-29.42-3.16
		c-16.35-6.55-26.42-18.59-29.63-35.91c-2.23-12.05-1.3-23.99,4.55-34.98c8.23-15.46,20.82-25.05,38.62-26.87
		c11.4-1.17,22.33,0.41,32.17,6.69c10.5,6.69,16.09,16.7,18.7,28.6c1.15,5.24,1.62,10.56,1.8,15.92c0.06,1.75-1,1.59-2.07,1.6
		c-6.96,0.01-13.92,0-20.88,0C427.74,253.42,424.46,253.42,421.18,253.42z M405.61,243.7c0-0.01,0-0.03,0-0.04
		c4.88,0,9.76,0.08,14.64-0.02c4.16-0.09,6.39-2.08,6.76-6.16c0.47-5.09,0.22-10.15-1.45-15.06c-3.27-9.58-12.31-14.62-21.7-11.92
		c-5.72,1.64-9.07,5.85-11.33,11.11c-2.81,6.56-3.47,13.54-4.12,20.53c-0.14,1.51,0.88,1.56,1.95,1.55
		C395.45,243.7,400.53,243.7,405.61,243.7z"/>
	<path d="M494.32,230.68c2.03-6.08,4.48-11.93,8.62-16.89c7.86-9.41,17.74-13.68,29.94-10.7c11.99,2.93,15.8,14.77,11.91,24.31
		c-2.64,6.47-9.58,9.54-15.84,7.27c-6.06-2.2-9.29-9.28-7.3-16.11c0.39-1.34,1.01-2.62,1.47-3.95c0.99-2.83-0.07-4.16-3.05-3.7
		c-3.24,0.5-5.48,2.68-7.57,4.95c-3.02,3.28-5.22,7.12-6.99,11.18c-4,9.21-6.45,18.81-7.2,28.85c-0.67,9.09-0.24,18.19-0.3,27.28
		c-0.03,4.1,2.58,6.53,6.75,6.59c3.88,0.06,7.76,0.08,11.64-0.01c1.77-0.04,2.61,0.46,2.48,2.37c-0.13,1.93-0.06,3.88-0.03,5.82
		c0.02,1.18-0.5,1.74-1.69,1.68c-0.33-0.02-0.67,0.01-1,0.01c-19.94,0-39.88,0-59.81,0c-2.65,0-2.69-0.06-2.71-2.69
		c-0.01-1.54,0.09-3.08-0.02-4.61c-0.14-1.88,0.52-2.62,2.49-2.58c2.93,0.05,5.88,0.31,8.8-0.32c3.83-0.84,5.64-2.94,5.64-6.87
		c0.02-18.53,0.01-37.07,0.01-55.6c0-1.54-0.06-3.07-0.47-4.57c-1.24-4.48-4.44-7.15-9.1-7.44c-1.67-0.1-3.35-0.12-5.02-0.04
		c-1.61,0.08-2.37-0.48-2.29-2.16c0.08-1.74,0.06-3.48,0.01-5.22c-0.04-1.39,0.44-2.04,1.96-2.1c3.54-0.13,7.07-0.46,10.6-0.64
		c8.34-0.44,16.68-0.88,25.03-1.27c3.04-0.14,3.04-0.07,3.05,2.89C494.32,214.49,494.32,222.58,494.32,230.68z"/>
	<path d="M277.28,203.56c8.43,0,16.86-0.01,25.29,0c2.6,0,2.68,0.1,2.68,2.73c0,1.54-0.06,3.08,0.01,4.61
		c0.06,1.45-0.52,2.05-1.99,2.02c-2.27-0.04-4.54-0.04-6.8,0.34c-4.35,0.75-5.95,3.2-4.55,7.47c1.32,4.03,3.69,7.56,5.68,11.27
		c6.03,11.26,12.13,22.48,18.21,33.71c0.31,0.57,0.43,1.52,1.11,1.55c0.87,0.04,0.93-1.01,1.24-1.62
		c6.37-12.67,12.71-25.35,19.05-38.03c0.21-0.42,0.43-0.83,0.61-1.27c2.71-6.54,0.23-11.25-6.71-12.67
		c-1.57-0.32-3.16-0.56-4.76-0.7c-1.13-0.1-1.52-0.66-1.52-1.68c0-1.87,0.04-3.75-0.03-5.62c-0.05-1.55,0.61-2.16,2.15-2.14
		c3.61,0.05,7.22,0.01,10.84,0.01c8.43,0,16.86-0.01,25.29,0c2.5,0,2.7,0.19,2.7,2.56c0,2,0.42,4.2-0.26,5.96
		c-0.78,2.01-3.4,1.25-5.17,1.85c-4.29,1.47-6.76,4.7-8.65,8.48c-8.97,17.94-17.88,35.92-26.8,53.89
		c-3.54,7.13-7.1,14.24-10.57,21.4c-0.71,1.47-1.65,1.99-3.28,1.97c-5.33-0.07-5.28-0.03-7.85-4.76
		c-13.31-24.51-26.64-49-39.98-73.49c-0.45-0.82-0.98-1.6-1.41-2.43c-2.21-4.17-5.54-6.44-10.38-6.08
		c-1.71,0.13-2.25-0.66-2.18-2.25c0.08-1.6,0.1-3.22-0.01-4.81c-0.12-1.78,0.64-2.33,2.35-2.32
		C260.16,203.58,268.72,203.56,277.28,203.56z"/>
	<path d="M460.4,27.63c-0.06,9.33-7.47,16.68-16.75,16.6c-9.18-0.07-16.59-7.66-16.51-16.91c0.08-9.18,7.58-16.29,17.1-16.21
		C453.21,11.19,460.45,18.6,460.4,27.63z"/>
	<path d="M243.89,177.81c0.11,9.1-7.01,16.51-15.98,16.63c-9.51,0.13-17.1-7.1-17.19-16.36c-0.08-9.18,7.24-16.66,16.41-16.76
		C236.47,161.21,243.78,168.4,243.89,177.81z"/>
	<path d="M472.95,174.71c-1.3,3.07-2.66,6.12-3.86,9.23c-0.54,1.4-1.44,1.68-2.78,1.7c-1.36,0.01-2.05-0.53-2.51-1.77
		c-1.01-2.72-2.13-5.4-3.61-8.01c0,2.58-0.04,5.16,0.01,7.74c0.03,1.42-0.49,2.03-1.99,2.05c-1.57,0.02-2.14-0.57-2.13-2.11
		c0.05-4.68,0.01-9.36,0.02-14.04c0-1.04-0.19-2.37,1.39-2.39c1.5-0.03,3.31-0.75,4.17,1.34c1.4,3.4,2.79,6.8,4.19,10.19
		c0.15,0.36,0.34,0.71,0.51,1.07c0.8-0.04,0.79-0.71,0.97-1.14c1.42-3.24,2.81-6.5,4.22-9.75c0.75-1.74,2.07-2.21,4.49-1.75
		c1.68,0.33,1.31,1.63,1.32,2.69c0.04,4.54-0.02,9.09,0.03,13.64c0.02,1.6-0.5,2.27-2.2,2.26c-1.66-0.02-2.03-0.75-2-2.21
		c0.07-2.87,0.02-5.75,0.02-8.62C473.15,174.78,473.05,174.74,472.95,174.71z"/>
	<path d="M268.27,178.54c0,1.72-0.05,3.45,0.01,5.17c0.06,1.54-0.72,1.93-2.11,1.92c-1.32-0.02-2.16-0.24-2.14-1.86
		c0.06-4.94,0.06-9.89,0-14.84c-0.02-1.57,0.75-1.92,2.1-1.92c1.33,0,2.21,0.3,2.15,1.89c-0.06,1.71-0.01,3.42,0.44,5.28
		c1.43-1.89,2.87-3.77,4.3-5.66c1.02-1.34,3.34-2.01,4.81-1.4c1.14,0.48,0.4,1.08,0.05,1.55c-1.53,2.03-3.05,4.07-4.67,6.02
		c-0.9,1.08-0.84,1.95,0.02,3c1.65,2.02,3.22,4.1,4.82,6.16c0.31,0.4,0.87,0.8,0.56,1.38c-0.3,0.58-0.95,0.31-1.46,0.38
		c-1.9,0.27-3.3-0.34-4.39-2.02c-1.19-1.83-2.65-3.48-4-5.21C268.6,178.42,268.44,178.48,268.27,178.54z"/>
	<path d="M424.38,166.91c1.63-0.12,3.2,0.15,4.74,0.67c1.03,0.35,2.18,0.59,1.49,2.17c-0.53,1.2-0.88,2.48-2.68,1.69
		c-1.3-0.57-2.68-0.84-4.11-0.71c-0.82,0.07-1.72,0.18-1.96,1.09c-0.27,1,0.63,1.37,1.32,1.76c1.63,0.92,3.3,1.76,4.92,2.71
		c1.87,1.1,2.98,2.73,2.69,4.98c-0.31,2.4-1.85,3.78-4.13,4.37c-3.26,0.84-6.36,0.32-9.36-1.1c-0.96-0.45-1.17-1.1-0.61-1.91
		c0.54-0.78,0.53-2.31,2.15-1.78c1.14,0.37,2.26,0.81,3.42,1.15c0.84,0.25,1.7,0.27,2.56-0.07c1.66-0.66,1.86-1.51,0.43-2.54
		c-1.08-0.77-2.32-1.31-3.49-1.96c-0.41-0.22-0.83-0.43-1.24-0.66c-2.96-1.7-4-3.4-3.46-5.66c0.57-2.4,2.92-4.06,5.95-4.2
		C423.45,166.89,423.92,166.91,424.38,166.91z"/>
	<path d="M309.16,176.29c0-2.4,0.04-4.81-0.02-7.21c-0.03-1.41,0.46-2.1,1.96-2.07c2.87,0.06,5.74,0.02,8.61,0.01
		c1.2-0.01,2.03,0.23,2.05,1.75c0.02,1.62-0.84,1.9-2.14,1.88c-1.47-0.02-2.94,0.03-4.41,0c-1.42-0.03-1.58,0.85-1.59,1.97
		c-0.01,1.15,0.19,1.98,1.62,1.9c1.13-0.06,2.27,0.04,3.4-0.02c1.28-0.06,1.81,0.48,1.81,1.76c0,1.34-0.67,1.76-1.88,1.7
		c-0.87-0.04-1.74,0.06-2.6-0.02c-1.67-0.16-2.41,0.35-2.39,2.2c0.02,1.82,0.86,2.11,2.36,2.03c1.46-0.07,2.94,0.02,4.41-0.02
		c1.25-0.03,1.82,0.45,1.8,1.76c-0.02,1.21-0.53,1.67-1.7,1.66c-3.2-0.02-6.41-0.03-9.61,0c-1.38,0.02-1.7-0.74-1.69-1.9
		C309.17,181.23,309.16,178.76,309.16,176.29z"/>
	<path d="M331.24,176.35c0-2.4,0.04-4.81-0.02-7.21c-0.04-1.55,0.64-2.19,2.16-2.12c2.26,0.09,4.53-0.12,6.79,0.23
		c3.15,0.49,5.03,2.16,5.24,4.83c0.27,3.47-1.34,6.08-4.36,7.01c-1.09,0.33-2.21,0.58-3.35,0.48c-1.62-0.14-2.18,0.62-2.04,2.13
		c0.04,0.46,0.01,0.93,0,1.4c-0.03,2.32-1.27,3.17-3.48,2.44c-0.93-0.31-0.93-1.05-0.94-1.78
		C331.23,181.29,331.24,178.82,331.24,176.35z M335.69,173.46c0.06,1.25-0.43,2.81,1.82,2.67c2.19-0.14,3.57-1.17,3.61-2.92
		c0.04-1.72-1.02-2.44-3.27-2.58C335.57,170.49,335.56,171.87,335.69,173.46z"/>
	<path d="M487.37,176.27c0-2.47,0.03-4.94-0.01-7.42c-0.02-1.26,0.5-1.87,1.78-1.83c2.47,0.07,4.94-0.18,7.4,0.25
		c2.92,0.51,4.68,2.09,5.03,4.64c0.42,3.06-1.02,5.75-3.69,6.88c-1.25,0.53-2.56,0.87-3.9,0.76c-1.74-0.14-2.27,0.69-2.12,2.26
		c0.04,0.4,0.01,0.8,0,1.2c-0.03,2.44-1.02,3.14-3.42,2.54c-1.09-0.27-1.05-1.08-1.06-1.87
		C487.36,181.22,487.37,178.74,487.37,176.27z M493.92,170.66c-1.41-0.23-2.33,0.42-2.03,2.1c0.21,1.21-1.04,3.21,1.53,3.35
		c2.19,0.11,3.87-1.17,3.86-2.88C497.27,171.58,496.22,170.73,493.92,170.66z"/>
	<path d="M531.09,176.22c0-2.41,0.04-4.81-0.01-7.21c-0.03-1.33,0.44-2,1.83-1.98c3.01,0.03,6.01,0.02,9.02,0
		c1.21-0.01,1.82,0.45,1.84,1.77c0.02,1.45-0.67,1.88-1.96,1.86c-1.6-0.03-3.21,0.05-4.81-0.01c-1.55-0.05-1.66,0.88-1.68,2.08
		c-0.02,1.24,0.34,1.89,1.7,1.81c1.13-0.07,2.27,0.02,3.41-0.01c1.12-0.03,1.74,0.32,1.75,1.59c0,1.22-0.34,1.93-1.69,1.86
		c-0.87-0.04-1.74,0-2.61,0c-2.6,0.01-2.53,0.01-2.55,2.53c-0.01,1.38,0.59,1.73,1.82,1.69c1.74-0.05,3.47,0.01,5.21-0.01
		c1.14-0.02,1.73,0.41,1.76,1.63c0.03,1.28-0.52,1.81-1.79,1.8c-3.14-0.03-6.28-0.05-9.42,0.01c-1.44,0.02-1.84-0.68-1.82-1.98
		C531.12,181.16,531.09,178.69,531.09,176.22z"/>
	<path d="M287.35,176.22c0-2.41,0.05-4.82-0.02-7.22c-0.04-1.34,0.44-2,1.83-1.98c3.01,0.03,6.02,0.02,9.03,0.01
		c1.3,0,1.74,0.69,1.73,1.91c-0.01,1.2-0.61,1.68-1.74,1.69c-1.67,0-3.35,0.05-5.02,0.02c-1.42-0.03-1.61,0.82-1.61,1.96
		c0,1.14,0.17,2,1.61,1.92c1-0.06,2.01,0.02,3.01-0.01c1.27-0.04,2.24,0.1,2.22,1.77c-0.02,1.72-1.12,1.7-2.31,1.69
		c-0.67-0.01-1.34,0-2.01,0c-2.45,0.01-2.74,0.4-2.52,2.82c0.1,1.04,0.58,1.39,1.55,1.38c1.81-0.02,3.61,0.04,5.42-0.01
		c1.29-0.03,1.82,0.52,1.81,1.79c-0.01,1.2-0.58,1.65-1.74,1.64c-3.14-0.03-6.29-0.05-9.43,0.01c-1.44,0.02-1.85-0.65-1.82-1.96
		C287.39,181.18,287.35,178.7,287.35,176.22z"/>
	<path d="M388.24,167.03c2.07,0,4.14,0.01,6.21,0c1.23-0.01,1.83,0.53,1.84,1.8c0.01,1.28-0.61,1.73-1.83,1.82
		c-4.13,0.3-4.13,0.33-4.13,4.44c0,2.74-0.05,5.48,0.02,8.21c0.04,1.53-0.34,2.35-2.11,2.34c-1.69-0.01-2.19-0.67-2.15-2.27
		c0.08-3.54-0.03-7.08,0.05-10.61c0.04-1.53-0.45-2.27-2.05-2.12c-0.66,0.06-1.33-0.01-2,0c-1.22,0.02-2.03-0.27-2.02-1.78
		c0-1.45,0.68-1.86,1.96-1.85C384.1,167.05,386.17,167.03,388.24,167.03C388.24,167.03,388.24,167.03,388.24,167.03z"/>
	<path d="M514.8,174.76c0,1.67,0.09,3.34-0.02,5c-0.12,1.78,0.43,2.63,2.35,2.43c1.32-0.13,2.67,0.01,4-0.03
		c1.18-0.03,1.69,0.5,1.7,1.68c0,1.13-0.41,1.76-1.63,1.75c-3.07-0.02-6.14-0.03-9.21,0c-1.22,0.01-1.67-0.6-1.66-1.72
		c0.01-5.01,0.02-10.01,0-15.02c-0.01-1.75,1.11-1.83,2.42-1.85c1.38-0.02,2.14,0.42,2.08,1.95
		C514.74,170.89,514.8,172.83,514.8,174.76z"/>
	<path d="M367.32,176.2c0-2.47,0.03-4.95-0.01-7.42c-0.03-1.49,0.81-1.8,2.05-1.77c1.17,0.03,2.41-0.06,2.42,1.62
		c0.02,5.15,0.01,10.29,0,15.44c0,1.59-1.14,1.52-2.25,1.53c-1.13,0-2.21,0-2.2-1.58C367.34,181.42,367.33,178.81,367.32,176.2
		C367.33,176.2,367.32,176.2,367.32,176.2z"/>
	<path d="M445,176.57c0,2.47-0.04,4.95,0.02,7.42c0.03,1.2-0.4,1.76-1.63,1.62c-1.11-0.13-2.62,0.42-2.62-1.54
		c-0.01-5.15,0.01-10.3-0.01-15.44c-0.01-1.6,1.07-1.59,2.19-1.61c1.2-0.02,2.1,0.19,2.07,1.73C444.95,171.36,445,173.97,445,176.57
		C445,176.57,445,176.57,445,176.57z"/>
</g>
</svg>
